PathFileType	4	(X/Y/Z)	41_2_6_p0_0-403_filt_butterworth.trc
DataRate	CameraRate	NumFrames	NumMarkers	Units	OrigDataRate	OrigDataStartFrame	OrigNumFrames
59.0	59.0	6	27	m	59.0	50	403
Frame#	Time	RHip			RKnee			RAnkle			RBigToe			RSmallToe			RHeel			LHip			LKnee			LAnkle			LBigToe			LSmallToe			LHeel			Neck			Head			Nose			RShoulder			RElbow			RWrist			RThumb			RIndex			RPinky			LShoulder			LElbow			LWrist			LThumb			LIndex			LPinky			
		X1	Y1	Z1	X2	Y2	Z2	X3	Y3	Z3	X4	Y4	Z4	X5	Y5	Z5	X6	Y6	Z6	X7	Y7	Z7	X8	Y8	Z8	X9	Y9	Z9	X10	Y10	Z10	X11	Y11	Z11	X12	Y12	Z12	X13	Y13	Z13	X14	Y14	Z14	X15	Y15	Z15	X16	Y16	Z16	X17	Y17	Z17	X18	Y18	Z18	X19	Y19	Z19	X20	Y20	Z20	X21	Y21	Z21	X22	Y22	Z22	X23	Y23	Z23	X24	Y24	Z24	X25	Y25	Z25	X26	Y26	Z26	X27	Y27	Z27	
50	0.847457627118644	0.37254904074026485	0.7305073942905594	0.7326302762641607	0.3526284967231648	0.405487389754567	0.6459043766956286	0.35967837529525115	0.04959165075409876	0.6552607123869312	0.339282417915995	0.028238087473549986	0.5110604375693604	0.4064648992025497	0.009366787093498544	0.5495635741019009	0.35352793102308266	-0.05835055741067331	0.7476780866819023	0.17601802374133632	0.7292929107016172	0.7268015140549228	0.1864087667410811	0.3717048610358517	0.6912646227246046	0.18918453365904664	0.008708832117676896	0.7021168239133043	0.18822784498949557	0.032703827380094815	0.5185263416462758	0.1428249938613535	0.009893185881054992	0.5739574836340446	0.21038138495301983	-0.04682307091570174	0.7329572243043998	0.256011631193502	1.2350301576887488	0.5770512926589448	0.23980510520473164	1.506446280470113	0.4792899193953132	0.23047743419041958	1.3511121168457896	0.41312045524237545	0.4030664515407236	1.1864138005998375	0.615680465304096	0.4827301303384769	0.9733013239542668	0.5996985937354601	0.3835159599287452	0.9406317816396299	0.4053296041164907	0.28038156498182487	0.9589018262650618	0.3473878275613457	0.2873302005362093	0.9538636397717543	0.29036253805440126	0.31622097714667735	0.8996732942863059	0.33242675520725495	0.11385596299129601	1.1819042653844485	0.606830835917618	0.04699834616103362	0.9527634899991451	0.6281609430090126	0.15290261898112528	0.888672598034613	0.4843249343254742	0.2213242753280245	0.9343112512593776	0.3933951073052101	0.23951239840866947	0.9080338890806424	0.3897945569242396	0.22329856986849908	0.8464847739760378	0.4573413560786082	
51	0.864406779661017	0.37330276102478954	0.7302543631071514	0.7363732353010034	0.3517745712821101	0.4068008372293406	0.6449451651737923	0.3593458581538447	0.05037259842025443	0.6540475062587429	0.33959493763686954	0.028698989209200172	0.5081014760757042	0.40605301448349396	0.008090657121361915	0.5513272608614169	0.35334639754508357	-0.05857693303712433	0.7470613479570333	0.17612965824554344	0.7276907634581633	0.7318328987075856	0.1882928549589107	0.37358681304624153	0.6890087874750779	0.19005813093810464	0.00873166597820521	0.7018075800094292	0.1881721766851825	0.03336726560552376	0.518199226449546	0.14299502843031242	0.010788497658571705	0.5738941309382005	0.21082431236227972	-0.04787786112670401	0.7337192798256978	0.2551387261479493	1.228034681202322	0.5736060917634738	0.2367686606322504	1.4997498650306862	0.47251103402989997	0.2282203376595031	1.3446630110787199	0.4063402622439288	0.4032312944722808	1.1840196366578217	0.6142312023164083	0.48004497713002303	0.9699198990794656	0.5957861807049982	0.3828335111628724	0.9395489680413495	0.39967613535286944	0.28431132915481716	0.9545333670273154	0.34094681120459425	0.2913265280895691	0.9548633297846677	0.28152467848769186	0.32049496951103407	0.8976112552345017	0.32951800025952704	0.11332698158403962	1.1762168604686571	0.6095704971011776	0.050877865129487054	0.9473809082004139	0.6299139786037646	0.15231090494294644	0.8906416926726237	0.4788607149061178	0.21824078296558624	0.9319415484836198	0.39081129051730945	0.23225166578970616	0.9103528436707502	0.3828699434419742	0.21577005488224885	0.8481074917664485	0.4477824524932917	
52	0.8813559322033898	0.3741245383972578	0.7301619600172043	0.7397574283528177	0.35092529264691696	0.40791303746473084	0.6441269951133133	0.35910815912484934	0.050750395023127975	0.6533914245298789	0.34003713729990237	0.030400088323560163	0.5048280236296124	0.40599573797259203	0.007946175623605764	0.5515045086388654	0.353299430861355	-0.05908568383017981	0.7470194768675807	0.17630415780385145	0.7261226140516965	0.7366897496114748	0.19013381833704937	0.37547359792284685	0.6867548113564739	0.19090700421174825	0.008272976534015306	0.7018293126480387	0.18822998225689858	0.03416555246471675	0.5183095991351844	0.1431800190305565	0.011648829329347604	0.5738192422612215	0.2113497812123672	-0.04906004282069153	0.7347098935161211	0.2548200600724505	1.2212928211450116	0.5710184492969772	0.2331673144484191	1.4933887417148526	0.46468357300806035	0.22644014560813397	1.3378306294899474	0.4007043746778283	0.4031647705137309	1.1811764427553626	0.6136568247768989	0.4773429690715605	0.9654813382997753	0.5946946712954302	0.3820543921847316	0.9381769821901136	0.3958252490493076	0.2878435631263948	0.9496588410896455	0.3334397185466397	0.29462711567639166	0.9528971301199652	0.27791809647718324	0.32515562330010495	0.8937622153429625	0.3298498191339211	0.11292343228992542	1.1708620719878038	0.6106751918436979	0.0545202759587432	0.943045099624787	0.6308113971006158	0.1526672980123593	0.8939854246669665	0.47012400845237734	0.21699829990362257	0.9301203890947535	0.38595798558532557	0.22610137576580033	0.9135799768753496	0.3732645409036873	0.20840751241264027	0.851806063917061	0.43540998881638904	
53	0.8983050847457628	0.37499222914753977	0.7302146499233118	0.7426475904035428	0.35015182508285436	0.408664680489721	0.6434592082166851	0.35900919680526916	0.050535537496852384	0.653469148715051	0.3405443131702923	0.03318764214701681	0.5018994666565495	0.40629828024735537	0.008971401207172124	0.550032009711881	0.3534850576215669	-0.06003586522486854	0.747641742136286	0.1765930514190529	0.7246835640517421	0.7411971769519151	0.1919045394164717	0.37722607883000137	0.6845529489421577	0.1917113370466249	0.007323729727549591	0.7021898879154408	0.18828328951498963	0.035513453674147495	0.5184399380366058	0.14336295497778473	0.012354376320803731	0.5737424184430147	0.21190265351564724	-0.05033743774382404	0.7358756335921538	0.2548021866630898	1.2149104244284155	0.5691265997684987	0.2294148265230512	1.4878710341184733	0.4556870370902386	0.2251214285301712	1.33073096565571	0.39618606518609	0.40267235812326874	1.1776092774067868	0.6135698813051587	0.47452695181639737	0.9602251608810278	0.5965684904116035	0.38133145532357693	0.9366307655478414	0.39334877789650613	0.2910247955139599	0.9447068459074915	0.32640002181665206	0.2978550441341107	0.9485430674092745	0.2789921213187853	0.3296516369585833	0.8889964007556079	0.33116909619124313	0.112710366447317	1.166147529937348	0.6094762123866857	0.05759571939308311	0.9396116282465166	0.6309916106164485	0.1526876210086871	0.8973711070170989	0.4613776424670042	0.2169314440875933	0.9285925835990541	0.3802318897821366	0.2209416089448582	0.9171385199001337	0.3622157958889698	0.20092473333230693	0.8561572359095456	0.42307206632730787	
54	0.9152542372881356	0.3758760627233541	0.7303860115489689	0.7449854357891326	0.349515258560696	0.408974490559422	0.6429568401358677	0.35907324414685166	0.04973589612908505	0.6543392818298969	0.3409997752198796	0.0363188254283425	0.49964803940277913	0.4068333518020656	0.010775364397584586	0.5474472666060695	0.3539560930717102	-0.06145012317092343	0.7489326536294002	0.17701103621396172	0.7234851997533501	0.7451779597161636	0.19358054694355298	0.3787688550940733	0.6824565555277329	0.19244194838021506	0.005996295815892658	0.7028162809217122	0.18828334577811595	0.0373632770568683	0.5183942872979508	0.14351255817721284	0.012801524395394864	0.5736732372859199	0.21245621392567846	-0.051676932467175515	0.7371433065834047	0.2547673299923291	1.208720510910482	0.5678327484797716	0.2259346027556257	1.483423927338116	0.4456111702572886	0.22421154073736677	1.323363695994373	0.39266252562272674	0.40174246478923126	1.173012292200277	0.6134651019707984	0.471557244558062	0.9545730317850202	0.6007120495181862	0.38093233026611745	0.934897235705885	0.39196870559744584	0.2940040322062296	0.940428357781036	0.32102628364934094	0.3016901147481059	0.9427528105074239	0.2833364975603465	0.3336252714584783	0.8843054347975426	0.33160100623747124	0.11266523147965074	1.1619304114267273	0.6062570666446744	0.05990554614744199	0.936547211131856	0.630562467758826	0.1515705827429784	0.8995552147897021	0.45551093715513025	0.2171168101232549	0.9270975032215945	0.37534141048311664	0.21655564943469377	0.9203275978738796	0.3517256354708109	0.19371056375876766	0.859689282328304	0.4132642233463124	
55	0.9322033898305084	0.3767375121294373	0.7305988626633935	0.7468625376473454	0.34904995108586145	0.408839306757034	0.642641164026898	0.35928417261194756	0.04851292755311598	0.6558503466223913	0.34128851247231523	0.03903404398995092	0.49826804637230915	0.4074567041490229	0.01291820122407622	0.5443621984933206	0.35470363742181477	-0.06324469320510939	0.7508438633124962	0.177513519021002	0.7225636068042561	0.7484833511614566	0.19513123434675092	0.3800978612912327	0.6805097915299186	0.1930665920581747	0.004475137431461926	0.7036243603953036	0.18826283260056376	0.039152962246255446	0.5182282080708176	0.14360222156336255	0.012953381248535803	0.5736313887537529	0.21300182106982704	-0.05303924198476458	0.7384760180085104	0.2544093992774863	1.202415313122261	0.5670525889527064	0.22289128854806012	1.48007354516885	0.4349852059068116	0.22360805576840617	1.3157027509259411	0.38974711676821544	0.400493924058959	1.1674287628376383	0.6131316021688438	0.4685861892425092	0.9489662583890401	0.6058371849462676	0.3811836293020955	0.9326745022670077	0.39201318195161805	0.2973069566697009	0.936820469963741	0.3182128286605531	0.30663377485547044	0.9356259694670834	0.29013260014784265	0.33705086556225183	0.8801721672063403	0.33108506249890796	0.112599834373451	1.15773114549657	0.6020470671705147	0.061456769639178004	0.933196100982078	0.629751639928426	0.14944756668777193	0.8998912639873464	0.45343440756050757	0.21697058107965528	0.9256316443638982	0.37240587124007307	0.21295494820191124	0.9223831793918881	0.3441799033760462	0.1880027257106559	0.8607326863028029	0.4080199914173135	
